<svg xmlns="http://www.w3.org/2000/svg" viewBox="0 0 100 100" role="img" aria-label="Align the Future monogram"><rect width="100" height="100" fill="#ECEFF6"/><g transform="translate(5.4,5.4)"><path d="M16,90 L52,30 L52,90" fill="none" stroke="#232E6E" stroke-width="11" stroke-linecap="butt" stroke-linejoin="round"/><line x1="52" y1="30" x2="52" y2="14" stroke="#232E6E" stroke-width="11" stroke-linecap="butt"/><line x1="35" y1="58" x2="52" y2="58" stroke="#232E6E" stroke-width="11" stroke-linecap="butt"/><line x1="52" y1="14" x2="78.76" y2="8.65" stroke="#A85A12" stroke-width="11" stroke-linecap="butt"/><polygon points="92,6 80.23,18.55 76.31,-1.06" fill="#A85A12"/><line x1="52" y1="58" x2="78.76" y2="63.35" stroke="#A85A12" stroke-width="11" stroke-linecap="butt"/><polygon points="92,66 76.31,73.06 80.23,53.45" fill="#A85A12"/></g><g transform="translate(4.95,4.95)"><path d="M16,90 L52,30 L52,90" fill="none" stroke="#232E6E" stroke-width="11" stroke-linecap="butt" stroke-linejoin="round"/><line x1="52" y1="30" x2="52" y2="14" stroke="#232E6E" stroke-width="11" stroke-linecap="butt"/><line x1="35" y1="58" x2="52" y2="58" stroke="#232E6E" stroke-width="11" stroke-linecap="butt"/><line x1="52" y1="14" x2="78.76" y2="8.65" stroke="#A85A12" stroke-width="11" stroke-linecap="butt"/><polygon points="92,6 80.23,18.55 76.31,-1.06" fill="#A85A12"/><line x1="52" y1="58" x2="78.76" y2="63.35" stroke="#A85A12" stroke-width="11" stroke-linecap="butt"/><polygon points="92,66 76.31,73.06 80.23,53.45" fill="#A85A12"/></g><g transform="translate(4.5,4.5)"><path d="M16,90 L52,30 L52,90" fill="none" stroke="#232E6E" stroke-width="11" stroke-linecap="butt" stroke-linejoin="round"/><line x1="52" y1="30" x2="52" y2="14" stroke="#232E6E" stroke-width="11" stroke-linecap="butt"/><line x1="35" y1="58" x2="52" y2="58" stroke="#232E6E" stroke-width="11" stroke-linecap="butt"/><line x1="52" y1="14" x2="78.76" y2="8.65" stroke="#A85A12" stroke-width="11" stroke-linecap="butt"/><polygon points="92,6 80.23,18.55 76.31,-1.06" fill="#A85A12"/><line x1="52" y1="58" x2="78.76" y2="63.35" stroke="#A85A12" stroke-width="11" stroke-linecap="butt"/><polygon points="92,66 76.31,73.06 80.23,53.45" fill="#A85A12"/></g><g transform="translate(4.05,4.05)"><path d="M16,90 L52,30 L52,90" fill="none" stroke="#232E6E" stroke-width="11" stroke-linecap="butt" stroke-linejoin="round"/><line x1="52" y1="30" x2="52" y2="14" stroke="#232E6E" stroke-width="11" stroke-linecap="butt"/><line x1="35" y1="58" x2="52" y2="58" stroke="#232E6E" stroke-width="11" stroke-linecap="butt"/><line x1="52" y1="14" x2="78.76" y2="8.65" stroke="#A85A12" stroke-width="11" stroke-linecap="butt"/><polygon points="92,6 80.23,18.55 76.31,-1.06" fill="#A85A12"/><line x1="52" y1="58" x2="78.76" y2="63.35" stroke="#A85A12" stroke-width="11" stroke-linecap="butt"/><polygon points="92,66 76.31,73.06 80.23,53.45" fill="#A85A12"/></g><g transform="translate(3.6,3.6)"><path d="M16,90 L52,30 L52,90" fill="none" stroke="#232E6E" stroke-width="11" stroke-linecap="butt" stroke-linejoin="round"/><line x1="52" y1="30" x2="52" y2="14" stroke="#232E6E" stroke-width="11" stroke-linecap="butt"/><line x1="35" y1="58" x2="52" y2="58" stroke="#232E6E" stroke-width="11" stroke-linecap="butt"/><line x1="52" y1="14" x2="78.76" y2="8.65" stroke="#A85A12" stroke-width="11" stroke-linecap="butt"/><polygon points="92,6 80.23,18.55 76.31,-1.06" fill="#A85A12"/><line x1="52" y1="58" x2="78.76" y2="63.35" stroke="#A85A12" stroke-width="11" stroke-linecap="butt"/><polygon points="92,66 76.31,73.06 80.23,53.45" fill="#A85A12"/></g><g transform="translate(3.15,3.15)"><path d="M16,90 L52,30 L52,90" fill="none" stroke="#232E6E" stroke-width="11" stroke-linecap="butt" stroke-linejoin="round"/><line x1="52" y1="30" x2="52" y2="14" stroke="#232E6E" stroke-width="11" stroke-linecap="butt"/><line x1="35" y1="58" x2="52" y2="58" stroke="#232E6E" stroke-width="11" stroke-linecap="butt"/><line x1="52" y1="14" x2="78.76" y2="8.65" stroke="#A85A12" stroke-width="11" stroke-linecap="butt"/><polygon points="92,6 80.23,18.55 76.31,-1.06" fill="#A85A12"/><line x1="52" y1="58" x2="78.76" y2="63.35" stroke="#A85A12" stroke-width="11" stroke-linecap="butt"/><polygon points="92,66 76.31,73.06 80.23,53.45" fill="#A85A12"/></g><g transform="translate(2.7,2.7)"><path d="M16,90 L52,30 L52,90" fill="none" stroke="#232E6E" stroke-width="11" stroke-linecap="butt" stroke-linejoin="round"/><line x1="52" y1="30" x2="52" y2="14" stroke="#232E6E" stroke-width="11" stroke-linecap="butt"/><line x1="35" y1="58" x2="52" y2="58" stroke="#232E6E" stroke-width="11" stroke-linecap="butt"/><line x1="52" y1="14" x2="78.76" y2="8.65" stroke="#A85A12" stroke-width="11" stroke-linecap="butt"/><polygon points="92,6 80.23,18.55 76.31,-1.06" fill="#A85A12"/><line x1="52" y1="58" x2="78.76" y2="63.35" stroke="#A85A12" stroke-width="11" stroke-linecap="butt"/><polygon points="92,66 76.31,73.06 80.23,53.45" fill="#A85A12"/></g><g transform="translate(2.25,2.25)"><path d="M16,90 L52,30 L52,90" fill="none" stroke="#232E6E" stroke-width="11" stroke-linecap="butt" stroke-linejoin="round"/><line x1="52" y1="30" x2="52" y2="14" stroke="#232E6E" stroke-width="11" stroke-linecap="butt"/><line x1="35" y1="58" x2="52" y2="58" stroke="#232E6E" stroke-width="11" stroke-linecap="butt"/><line x1="52" y1="14" x2="78.76" y2="8.65" stroke="#A85A12" stroke-width="11" stroke-linecap="butt"/><polygon points="92,6 80.23,18.55 76.31,-1.06" fill="#A85A12"/><line x1="52" y1="58" x2="78.76" y2="63.35" stroke="#A85A12" stroke-width="11" stroke-linecap="butt"/><polygon points="92,66 76.31,73.06 80.23,53.45" fill="#A85A12"/></g><g transform="translate(1.8,1.8)"><path d="M16,90 L52,30 L52,90" fill="none" stroke="#232E6E" stroke-width="11" stroke-linecap="butt" stroke-linejoin="round"/><line x1="52" y1="30" x2="52" y2="14" stroke="#232E6E" stroke-width="11" stroke-linecap="butt"/><line x1="35" y1="58" x2="52" y2="58" stroke="#232E6E" stroke-width="11" stroke-linecap="butt"/><line x1="52" y1="14" x2="78.76" y2="8.65" stroke="#A85A12" stroke-width="11" stroke-linecap="butt"/><polygon points="92,6 80.23,18.55 76.31,-1.06" fill="#A85A12"/><line x1="52" y1="58" x2="78.76" y2="63.35" stroke="#A85A12" stroke-width="11" stroke-linecap="butt"/><polygon points="92,66 76.31,73.06 80.23,53.45" fill="#A85A12"/></g><g transform="translate(1.35,1.35)"><path d="M16,90 L52,30 L52,90" fill="none" stroke="#232E6E" stroke-width="11" stroke-linecap="butt" stroke-linejoin="round"/><line x1="52" y1="30" x2="52" y2="14" stroke="#232E6E" stroke-width="11" stroke-linecap="butt"/><line x1="35" y1="58" x2="52" y2="58" stroke="#232E6E" stroke-width="11" stroke-linecap="butt"/><line x1="52" y1="14" x2="78.76" y2="8.65" stroke="#A85A12" stroke-width="11" stroke-linecap="butt"/><polygon points="92,6 80.23,18.55 76.31,-1.06" fill="#A85A12"/><line x1="52" y1="58" x2="78.76" y2="63.35" stroke="#A85A12" stroke-width="11" stroke-linecap="butt"/><polygon points="92,66 76.31,73.06 80.23,53.45" fill="#A85A12"/></g><g transform="translate(0.9,0.9)"><path d="M16,90 L52,30 L52,90" fill="none" stroke="#232E6E" stroke-width="11" stroke-linecap="butt" stroke-linejoin="round"/><line x1="52" y1="30" x2="52" y2="14" stroke="#232E6E" stroke-width="11" stroke-linecap="butt"/><line x1="35" y1="58" x2="52" y2="58" stroke="#232E6E" stroke-width="11" stroke-linecap="butt"/><line x1="52" y1="14" x2="78.76" y2="8.65" stroke="#A85A12" stroke-width="11" stroke-linecap="butt"/><polygon points="92,6 80.23,18.55 76.31,-1.06" fill="#A85A12"/><line x1="52" y1="58" x2="78.76" y2="63.35" stroke="#A85A12" stroke-width="11" stroke-linecap="butt"/><polygon points="92,66 76.31,73.06 80.23,53.45" fill="#A85A12"/></g><g transform="translate(0.45,0.45)"><path d="M16,90 L52,30 L52,90" fill="none" stroke="#232E6E" stroke-width="11" stroke-linecap="butt" stroke-linejoin="round"/><line x1="52" y1="30" x2="52" y2="14" stroke="#232E6E" stroke-width="11" stroke-linecap="butt"/><line x1="35" y1="58" x2="52" y2="58" stroke="#232E6E" stroke-width="11" stroke-linecap="butt"/><line x1="52" y1="14" x2="78.76" y2="8.65" stroke="#A85A12" stroke-width="11" stroke-linecap="butt"/><polygon points="92,6 80.23,18.55 76.31,-1.06" fill="#A85A12"/><line x1="52" y1="58" x2="78.76" y2="63.35" stroke="#A85A12" stroke-width="11" stroke-linecap="butt"/><polygon points="92,66 76.31,73.06 80.23,53.45" fill="#A85A12"/></g><path d="M16,90 L52,30 L52,90" fill="none" stroke="#3D4FB5" stroke-width="11" stroke-linecap="butt" stroke-linejoin="round"/><line x1="52" y1="30" x2="52" y2="14" stroke="#3D4FB5" stroke-width="11" stroke-linecap="butt"/><line x1="35" y1="58" x2="52" y2="58" stroke="#3D4FB5" stroke-width="11" stroke-linecap="butt"/><line x1="52" y1="14" x2="78.76" y2="8.65" stroke="#F28C28" stroke-width="11" stroke-linecap="butt"/><polygon points="92,6 80.23,18.55 76.31,-1.06" fill="#F28C28"/><line x1="52" y1="58" x2="78.76" y2="63.35" stroke="#F28C28" stroke-width="11" stroke-linecap="butt"/><polygon points="92,66 76.31,73.06 80.23,53.45" fill="#F28C28"/></svg>
