<svg xmlns="http://www.w3.org/2000/svg" viewBox="0 0 100 100" role="img" aria-label="Align the Future monogram"><rect width="100" height="100" fill="#F3E9F1"/><line x1="0" y1="14" x2="100" y2="14" stroke="#D9C9DA" stroke-width="0.5"/><line x1="0" y1="26" x2="100" y2="26" stroke="#D9C9DA" stroke-width="0.5"/><line x1="0" y1="38" x2="100" y2="38" stroke="#D9C9DA" stroke-width="0.5"/><line x1="0" y1="50" x2="100" y2="50" stroke="#D9C9DA" stroke-width="0.5"/><line x1="0" y1="62" x2="100" y2="62" stroke="#D9C9DA" stroke-width="0.5"/><line x1="0" y1="74" x2="100" y2="74" stroke="#D9C9DA" stroke-width="0.5"/><line x1="0" y1="86" x2="100" y2="86" stroke="#D9C9DA" stroke-width="0.5"/><line x1="0" y1="98" x2="100" y2="98" stroke="#D9C9DA" stroke-width="0.5"/><path d="M15,92 Q30,66 47,38 T64,10" fill="none" stroke="#2B2A3E" stroke-width="3.2" stroke-linecap="round" stroke-linejoin="round"/><path d="M64,10 L53,14 M64,10 L61.5,22" fill="none" stroke="#2B2A3E" stroke-width="3.2" stroke-linecap="round" stroke-linejoin="round"/><path d="M45,42 Q55,64 72,92" fill="none" stroke="#2B2A3E" stroke-width="3.2" stroke-linecap="round" stroke-linejoin="round"/><path d="M26,71 Q43,69.5 61,71" fill="none" stroke="#2B2A3E" stroke-width="3.2" stroke-linecap="round" stroke-linejoin="round"/><path d="M36,55 Q58,44 82,31" fill="none" stroke="#2B2A3E" stroke-width="3.2" stroke-linecap="round" stroke-linejoin="round"/><path d="M82,31 L70,31 M82,31 L77,41" fill="none" stroke="#2B2A3E" stroke-width="3.2" stroke-linecap="round" stroke-linejoin="round"/><path d="M16,91 Q31,65 48,37 T64,11" fill="none" stroke="#2B2A3E" stroke-width="1.2" stroke-linecap="round" opacity="0.45"/></svg>
