<svg xmlns="http://www.w3.org/2000/svg" viewBox="0 0 100 100" role="img" aria-label="Align the Future monogram"><defs><linearGradient id="ember" gradientUnits="userSpaceOnUse" x1="10" y1="95" x2="95" y2="10"><stop offset="0" stop-color="#7A1E1E"/><stop offset="0.5" stop-color="#E8601C"/><stop offset="1" stop-color="#F5B72E"/></linearGradient></defs><rect width="100" height="100" fill="#FFFDF8"/><polygon points="36.89,47.4 51.87,93.87 58.13,92.13 47.01,44.6" fill="url(#ember)"/><polygon points="17.62,83.81 19.16,83 20.71,82.21 22.26,81.44 23.82,80.69 25.39,79.95 26.97,79.23 28.56,78.54 30.15,77.86 31.75,77.2 33.36,76.56 34.98,75.94 36.6,75.34 38.23,74.75 39.86,74.19 41.5,73.65 43.15,73.13 44.8,72.62 46.46,72.14 48.12,71.68 49.78,71.23 51.45,70.81 53.13,70.41 54.81,70.02 56.49,69.66 58.18,69.31 59.87,68.99 61.56,68.69 63.25,68.4 64.95,68.14 66.65,67.9 68.36,67.68 70.06,67.47 71.77,67.29 73.47,67.13 75.18,66.99 76.89,66.87 78.6,66.77 80.31,66.69 82.02,66.63 83.73,66.59 83.18,55.6 81.35,55.76 79.52,55.94 77.69,56.14 75.86,56.37 74.04,56.61 72.22,56.88 70.41,57.17 68.6,57.48 66.8,57.81 65,58.16 63.2,58.54 61.41,58.93 59.63,59.35 57.85,59.79 56.07,60.24 54.31,60.72 52.55,61.22 50.79,61.74 49.05,62.28 47.31,62.84 45.57,63.42 43.85,64.02 42.13,64.65 40.42,65.29 38.72,65.95 37.03,66.63 35.35,67.33 33.68,68.05 32.01,68.79 30.36,69.55 28.71,70.33 27.07,71.13 25.45,71.94 23.83,72.78 22.23,73.64 20.64,74.51 19.05,75.4 17.48,76.31 15.92,77.24 14.37,78.19" fill="url(#ember)"/><polygon points="98.85,61.11 82.24,72.26 83.5,48.29" fill="url(#ember)"/><polygon points="11.97,94.32 13.06,92.07 14.19,89.83 15.35,87.61 16.55,85.42 17.79,83.25 19.07,81.1 20.38,78.97 21.72,76.87 23.11,74.79 24.52,72.73 25.97,70.7 27.46,68.7 28.98,66.72 30.53,64.77 32.11,62.85 33.73,60.95 35.38,59.08 37.05,57.25 38.76,55.44 40.5,53.66 42.27,51.91 44.07,50.2 45.89,48.51 47.75,46.86 49.63,45.24 51.53,43.65 53.47,42.1 55.43,40.58 57.41,39.1 59.42,37.65 61.45,36.23 63.5,34.85 65.58,33.5 67.68,32.2 69.8,30.92 71.94,29.69 74.1,28.49 76.28,27.33 78.48,26.21 80.69,25.13 75.72,15.31 73.39,16.58 71.08,17.89 68.8,19.24 66.54,20.63 64.3,22.05 62.09,23.51 59.91,25.01 57.75,26.55 55.62,28.12 53.52,29.72 51.45,31.37 49.4,33.04 47.39,34.75 45.4,36.5 43.45,38.27 41.53,40.08 39.64,41.92 37.78,43.79 35.95,45.7 34.16,47.63 32.4,49.59 30.68,51.59 28.99,53.61 27.34,55.65 25.72,57.73 24.14,59.83 22.59,61.96 21.09,64.11 19.62,66.29 18.19,68.49 16.79,70.72 15.44,72.96 14.12,75.23 12.84,77.52 11.61,79.84 10.41,82.17 9.25,84.52 8.14,86.89 7.06,89.27 6.03,91.68" fill="url(#ember)"/><polygon points="92.28,13.97 81.64,30.91 73.04,8.5" fill="url(#ember)"/></svg>
