<svg xmlns="http://www.w3.org/2000/svg" viewBox="6.99 11.05 511.33 115.5" role="img" aria-label="Align the Future"><g transform="translate(6,9.88) scale(1.08)"><path d="M40.56,46 L50,93" fill="none" stroke="#0B3C5D" stroke-width="9.5" stroke-linecap="butt"/><path d="M15.14,81 A118,118 0 0 1 71.51,63.23" fill="none" stroke="#FF8C42" stroke-width="9.5" stroke-linecap="butt"/><polygon points="85.9,63.36 70.17,73.28 71.7,51.34" fill="#FF8C42"/><path d="M9,93 A118,118 0 0 1 66.33,28.21" fill="none" stroke="#0B3C5D" stroke-width="9.5" stroke-linecap="butt"/><polygon points="79.53,22.47 69.19,37.94 61.67,17.27" fill="#0B3C5D"/></g><path d="M115.02691472499028 92.18317853655134H132.09579411952154L132.2152261437961 94.67225655691965H114.89491242309296ZM117.9622462330818 108.84345964704241Q117.9622462330818 109.37458792550223 117.64796819178716 109.68729396275111Q117.33369015049252 110.0 116.65799312900813 110.0H107.264042236151Q106.61034559831617 110.0 106.28821041416438 109.68729396275111Q105.9660752300126 109.37458792550223 105.9660752300126 108.84345964704241Q105.9660752300126 108.4317538016183 106.19235845057622 108.16461765834264Q106.41864167113984 107.89748151506697 106.82720734496796 107.66177490234375L107.89894771885189 107.26577375139509Q108.76636976823805 106.91063895089286 109.44049958129608 106.06051086425782Q110.11462939435413 105.21038277762277 110.70862248866216 103.21155133928572L120.28500833548135 71.44957502092635Q120.67471571550368 70.1736026436942 120.40442980939318 69.53876142229353Q120.13414390328269 68.90392020089286 119.2069972096443 68.50793247767857Q118.58785972359519 68.19365635463168 118.27671897652488 67.9060927908761Q117.96557822945456 67.61852922712053 117.96557822945456 67.15654035295759Q117.96557822945456 66.58455531529017 118.30971283813201 66.29227765764509Q118.65384744680948 66.0 119.3012599049568 66.0H132.92839613542554Q133.58523678135188 66.0 133.92151424717218 66.29856375558036Q134.2577917129925 66.59712751116072 134.2577917129925 67.15654035295759Q134.2577917129925 67.61224312918526 133.96236525163647 67.917092023577Q133.66693879028045 68.22194091796874 133.03523102660859 68.48907610212053Q132.25265115774698 68.72164062499999 132.07979209664205 69.1286314174107Q131.90693303553715 69.53562220982143 132.2337851909501 70.58531808035714L142.9887328751019 104.5786922781808Q143.43501130004609 105.99609514508928 143.9818711284501 106.6199409702846Q144.52873095685413 107.2437867954799 145.4118826379367 107.53920846121652Q145.97130507097242 107.80005754743304 146.1991593364579 108.09076416015625Q146.4270136019434 108.38147077287947 146.4270136019434 108.84345964704241Q146.4270136019434 109.34630336216517 146.0954502300126 109.67315168108259Q145.7638868580818 110.0 145.09761802437646 110.0H132.04552451851706Q131.3729715051242 110.0 131.04769327200478 109.68729396275111Q130.72241503888537 109.37458792550223 130.72241503888537 108.84345964704241Q130.72241503888537 108.38461286272322 130.97698378190992 108.1159047154018Q131.23155252493447 107.84719656808036 131.70611551321574 107.65234671456473L133.29015656371797 107.33806483677455Q133.95015656371797 107.15264125279018 134.09158609427044 106.62307250976562Q134.23301562482288 106.09350376674107 133.86216270211082 104.87723493303571L122.86836631539207 69.60789603097098L123.74206678972243 68.76878156389509L113.46483569318224 102.87213657924107Q113.07512639491216 104.18268920898437 113.23540654627934 105.05638968331473Q113.39568669764652 105.93009015764508 114.01953252284184 106.46907941545759Q114.64337834803716 107.00806867327009 115.62079272443225 107.32548880440848L117.02254460780279 107.67120309012277Q117.53482226544787 107.8660529436384 117.74853424926484 108.14418927873885Q117.9622462330818 108.42232561383929 117.9622462330818 108.84345964704241Z M158.5490235768318 64.53860020228794V105.970927734375Q158.5490235768318 106.78491507393973 158.75959730730054 107.15576895577567Q158.9701710377693 107.52662283761161 159.46046365774697 107.6837637765067L160.74906769653046 107.96662091936383Q161.13249281511304 108.1489004952567 161.31320518257957 108.39718122209821Q161.49391755004606 108.64546194893973 161.49391755004606 109.02259713309152Q161.49391755004606 109.48144199916294 161.20792407208847 109.74072099958147Q160.9219305941309 110.0 160.4033687567983 110.0H148.9917760879925Q148.49521463430946 110.0 148.20450706246237 109.74072099958147Q147.91379949061528 109.48144199916294 147.91379949061528 109.02259713309152Q147.91379949061528 108.651748046875 148.10708405395235 108.39718122209821Q148.3003686172894 108.14261439732142 148.6963659317425 107.9540487234933L149.97239777465546 107.6837637765067Q150.47211858241215 107.52662283761161 150.67797821899137 107.15576895577567Q150.88383785557062 106.78491507393973 150.88383785557062 105.98349993024553V69.25907034737723Q150.88383785557062 68.65250697544643 150.71255271675923 68.38851004464286Q150.54126757794785 68.12451311383928 150.13269614937644 68.0208030482701L148.49207062621795 67.96423392159598Q148.09293314016884 67.81338291713169 147.924792009449 67.59181570870535Q147.75665087872912 67.37024850027902 147.75665087872912 67.04025617327008Q147.75665087872912 66.65997889927455 147.992360368824 66.39912789481026Q148.22806985891884 66.13827689034598 148.79063054530278 65.9277108328683L155.57908112426483 63.80946655273437Q156.3364955006599 63.532901262555804 156.73091601544786 63.44018947056361Q157.1253365302358 63.34747767857142 157.47418523280277 63.34747767857142Q158.0021752579144 63.34747767857142 158.2755994173731 63.67747192382812Q158.5490235768318 64.00746616908482 158.5490235768318 64.53860020228794Z M174.16588724173135 83.08773960658482V105.970927734375Q174.16588724173135 106.77548688616072 174.3764609722001 107.14634076799666Q174.58703470266883 107.51719464983259 175.0773273226465 107.6837637765067L176.36593136143 107.96662091936383Q176.73992829223357 108.13947230747767 176.9253547535896 108.3924671282087Q177.11078121494563 108.64546194893973 177.11078121494563 109.02259713309152Q177.11078121494563 109.48144199916294 176.82478773698804 109.74072099958147Q176.53879425903045 110.0 176.02023242169787 110.0H164.60863975289206Q164.10265011143 110.0 163.8166566334724 109.74072099958147Q163.53066315551482 109.48144199916294 163.53066315551482 109.02259713309152Q163.53066315551482 108.65803414481027 163.71137552298134 108.40818237304688Q163.89208789044787 108.15833060128348 164.2629408131599 107.97919311523438L165.589261439555 107.6837637765067Q166.0889822473117 107.51719464983259 166.29484188389094 107.14634076799666Q166.5007015204702 106.77548688616072 166.5007015204702 105.98349993024553V87.8082097516741Q166.5007015204702 87.2016463797433 166.3294163816588 86.93764944893972Q166.15813124284742 86.67365251813615 165.74955981427598 86.56994245256696L164.1089342911175 86.51337332589286Q163.7097968050684 86.36252232142857 163.54165567434853 86.14095511300224Q163.37351454362866 85.9193879045759 163.37351454362866 85.58939557756696Q163.37351454362866 85.20911830357143 163.60922403372354 84.94826729910714Q163.84493352381838 84.68741629464286 164.40749421020232 84.47685023716518L171.19594478916437 82.35860595703124Q171.95335916555948 82.08204066685268 172.3477796803474 81.98932887486049Q172.74220019513535 81.8966170828683 173.0910488977023 81.8966170828683Q173.61903892281393 81.8966170828683 173.89246308227263 82.22661132812499Q174.16588724173135 82.55660557338169 174.16588724173135 83.08773960658482ZM170.09600041834963 77.82962489536831Q167.96205336198804 77.82962489536831 166.66565548252373 76.52851004464286Q165.36925760305945 75.2273951939174 165.36925760305945 73.21601266043527Q165.36925760305945 71.19205793108259 166.67194158045902 69.89094308035715Q167.97462555785856 68.58982822963169 170.09600041834963 68.58982822963169Q172.23937566249026 68.58982822963169 173.55305887259073 69.89094308035715Q174.86674208269116 71.19205793108259 174.86674208269116 73.2097265625Q174.86674208269116 75.2273951939174 173.54991582362308 76.52851004464286Q172.233089564555 77.82962489536831 170.09600041834963 77.82962489536831Z M196.76313560250142 108.10496878487723Q193.40340328525812 107.39151872907367 191.73925045322687 106.86036263602121Q190.07509762119562 106.32920654296875 189.5298078785896 105.82476876395089Q188.98451813598356 105.32033098493304 188.98451813598356 104.69489205496652Q188.98451813598356 104.11659790039063 189.39152715174808 103.66244602748327Q189.7985361675126 103.2082941545759 190.50255803553713 102.9222834123884L190.31084068062643 102.47599155970983Q187.46033025233402 102.74943010602678 185.74279354404717 103.53827976771763Q184.02525683576036 104.32712942940849 183.26469941039764 105.4758260672433Q182.50414198503492 106.62452270507812 182.50414198503492 107.99478655133929Q182.50414198503492 109.42791137695312 183.38256422624585 110.52947570800781Q184.26098646745677 111.6310400390625 186.45783670462197 112.50161568777901Q188.65468694178713 113.37219133649553 192.59897073782508 114.12649431501116Q196.01838549786973 114.74564906529018 197.86323918788088 115.43551522391184Q199.70809287789206 116.12538138253348 200.4105226002693 116.98967572893415Q201.11295232264652 117.85397007533483 201.11295232264652 119.0011244419643Q201.11295232264652 120.31171543666295 200.27536573991773 121.25616184779577Q199.43777915718894 122.20060825892857 197.70918566876816 122.69561976841518Q195.9805921803474 123.19063127790179 193.28400003470009 123.19063127790179Q188.39995898419787 123.19063127790179 186.27694018536974 121.43376473563058Q184.1539213865416 119.67689819335938 184.1539213865416 116.94260864257812Q184.1539213865416 115.56599155970983 185.11568573852264 114.48167131696428Q186.07745009050367 113.39735107421875 188.20527985473356 112.73733380998884L187.6584296175684 112.10875854492187Q182.74925952130724 112.76877964564733 180.58224762817107 114.49580113002233Q178.4152357350349 116.22282261439732 178.4152357350349 118.74968244280134Q178.4152357350349 120.72654227120536 179.85780217616212 122.23983642578125Q181.30036861728937 123.75313058035715 184.4070677488463 124.60170968191964Q187.5137668804032 125.45028878348214 192.50145085780278 125.45028878348214Q199.927952845805 125.45028878348214 203.72606808018 122.92501918247768Q207.524183314555 120.39974958147322 207.524183314555 116.23865199497767Q207.524183314555 113.97895804268973 206.5326189835003 112.42796840122767Q205.54105465244564 110.87697875976562 203.1902180348396 109.83983590262277Q200.83938141723357 108.80269304547991 196.76313560250142 108.10496878487723ZM197.1340345631599 83.86717163085937 198.51057299786973 84.12489780970982Q199.28372851544785 82.61319771902902 199.95630358869005 81.9186270577567Q200.62887866193222 81.22405639648437 201.4145871929032 81.22405639648437Q202.08086369959966 81.22405639648437 202.56642879795345 81.6719087437221Q203.05199389630724 82.11976109095983 203.52184470894673 82.70589800153459Q203.99169552158625 83.29203491210937 204.5778295547894 83.73988725934709Q205.1639635879925 84.18773960658481 206.03766406232285 84.18773960658481Q207.40163605590544 84.18773960658481 208.1684767018318 83.27318908691406Q208.93531734775814 82.3586385672433 208.93531734775814 80.78096226283482Q208.93531734775814 78.96442766462053 207.83218484915324 77.89116036551339Q206.7290523505483 76.81789306640624 204.77422551600588 76.81789306640624Q202.49255228079383 76.81789306640624 200.757720650632 78.31543265206473Q199.0228890204702 79.81297223772322 197.73746351823803 82.60376761300223ZM205.35246020490098 92.38116856166295Q205.35246020490098 89.47401994977679 203.84860958408626 87.0713081577846Q202.34475896327152 84.66859636579241 199.5287798721722 83.22760096958706Q196.71280078107287 81.78660557338169 192.78427155395232 81.78660557338169Q188.68917128190992 81.78660557338169 185.68462651698246 83.22760288783482Q182.680081752055 84.66860020228795 181.0505226002693 87.19388035365513Q179.42096344848358 89.71916050502232 179.42096344848358 93.00029453822545Q179.42096344848358 95.9357257952009 181.02066699201038 98.28343950544084Q182.62037053553715 100.6311532156808 185.56362920252934 101.99672310965401Q188.5068878695215 103.36229300362723 192.54541134189876 103.36229300362723Q196.2508080704144 103.36229300362723 199.14064449619565 101.95586730957031Q202.03048092197687 100.54944161551339 203.69147056343894 98.07287440708706Q205.35246020490098 95.59630719866071 205.35246020490098 92.38116856166295ZM191.25374002493447 83.75084908621652Q193.58581138375143 83.61885445731026 195.31912759817666 85.91002014160156Q197.0524438126019 88.20118582589285 197.51442501377375 92.45033482142857Q197.97640621494563 96.5046128627232 196.77736228707175 98.86647748674665Q195.57831835919785 101.22834211077009 193.41282955478937 101.36033673967634Q191.89164181064876 101.4451904296875 190.57789817574363 100.43317757742746Q189.2641545408385 99.42116472516742 188.36528665579385 97.44272426060269Q187.4664187707492 95.46428379603795 187.1552885740416 92.66713902064731Q186.85358656511303 89.97685791015624 187.31089683297017 88.01256931849888Q187.7682071008273 86.04828072684151 188.79909742937085 84.9419917515346Q189.82998775791438 83.83570277622768 191.25374002493447 83.75084908621652Z M220.02016911952154 83.08773960658482V105.970927734375Q220.02016911952154 106.81319963727678 220.21660056832175 107.20762398856027Q220.41303201712196 107.60204833984375 220.91275282487868 107.77804565429688L222.2202132392202 108.07975917271206Q222.86135302716661 108.4066055733817 222.86135302716661 109.02259713309152Q222.86135302716661 110.0 221.85565792393 110.0H210.46292163068225Q209.96636017699922 110.0 209.6756526051521 109.74072099958147Q209.384945033305 109.48144199916294 209.384945033305 109.02259713309152Q209.384945033305 108.65803414481027 209.56565740077153 108.41289646693639Q209.74636976823805 108.1677587890625 210.1172226909501 107.97919311523438L211.4435433173452 107.6837637765067Q211.94326412510188 107.52662283761161 212.14912376168112 107.15576895577567Q212.35498339826037 106.78491507393973 212.35498339826037 105.98349993024553V87.8082097516741Q212.35498339826037 87.2016463797433 212.183698259449 86.93764944893972Q212.0124131206376 86.67365251813615 211.60384169206617 86.56994245256696L209.96321616890768 86.51337332589286Q209.56407868285856 86.36252232142857 209.39593755213872 86.14095511300224Q209.22779642141884 85.9193879045759 209.22779642141884 85.58939557756696Q209.22779642141884 85.20911830357143 209.46350591151372 84.94826729910714Q209.69921540160857 84.68741629464286 210.2617760879925 84.47685023716518L217.05022666695456 82.35860595703124Q217.80764104334966 82.08204066685268 218.2020615581376 81.98932887486049Q218.59648207292554 81.8966170828683 218.9453307754925 81.8966170828683Q219.4733208006041 81.8966170828683 219.7467449600628 82.22661132812499Q220.02016911952154 82.55660557338169 220.02016911952154 83.08773960658482ZM219.29732732264654 89.7473894391741 218.33563106846125 88.62855608258928 219.53305695434295 87.48455915178572Q222.68217717616216 84.46429722377232 225.08330353637422 83.12702340262277Q227.48442989658625 81.78974958147322 229.71899480311527 81.78974958147322Q232.78956277884072 81.78974958147322 234.39870793788089 83.66603951590402Q236.00785309692108 85.54232945033482 236.4541430313519 89.15661516462053L238.55045214826038 105.88292236328125Q238.6541660503251 106.73148420061383 238.8458843643597 107.13691162109374Q239.0376026783943 107.54233904157365 239.56246979613982 107.70890816824777L240.75049626795902 107.97919311523438Q241.11192100289207 108.17090087890625 241.3020615581376 108.41132446289063Q241.49220211338314 108.651748046875 241.49220211338314 109.02259713309152Q241.49220211338314 109.48144199916294 241.20620863542555 109.74072099958147Q240.92021515746796 110.0 240.40165332013538 110.0H228.8706343817983Q227.85236708269116 110.0 227.85236708269116 109.02259713309152Q227.85236708269116 108.4003213936942 228.51550725428714 108.07975917271206L229.84811206036974 107.77804565429688Q230.4075498393876 107.60204833984375 230.6511241453307 107.19190682547432Q230.89469845127377 106.7817653111049 230.790984549209 105.97720424107143L228.94609441249028 91.02026576450893Q228.63494311505724 88.63793823242187 227.76749421020233 87.48763122558594Q226.90004530534742 86.33732421875 225.17458527465544 86.33732421875Q224.01484528442109 86.33732421875 222.8472462330818 86.9297673688616Q221.6796471817425 87.52221051897321 220.33761226963313 88.78567400251116Z  M254.7301239535059 84.99855032784598 252.74694925345008 84.58369663783482Q252.27552451851705 84.41398733956473 252.13409690621236 84.12956394740513Q251.99266929390768 83.84514055524554 251.99266929390768 83.46486328124999Q251.99266929390768 83.01230451311383 252.31166046996793 82.71531276157924Q252.6306516460282 82.41832101004464 253.13035327130723 82.41832101004464H255.17009901628492Q255.51895922833847 82.41832101004464 255.78452816318782 82.21717930385044Q256.05009709803716 82.01603759765625 256.3957998742648 81.45347115652902L260.2613952286175 76.7486213030134Q260.6636671315193 76.1986328125 261.09579752005163 75.9079252406529Q261.52792790858405 75.61721766880581 261.98048859496794 75.61721766880581Q262.4676180243764 75.61721766880581 262.7646107350349 75.93306675502232Q263.0616034456934 76.24891584123884 263.0616034456934 76.89947038922992V101.91357282366072Q263.0616034456934 104.10099103655133 263.90074860473356 105.1852738734654Q264.73989376377375 106.26955671037946 266.2641794780595 106.26955671037946Q267.00275474312645 106.26955671037946 267.5700410328865 106.01184395926339Q268.1373273226465 105.75413120814733 268.58518350637974 105.33456246512277Q269.033039690113 104.91499372209822 269.4007514821052 104.42785566057478Q269.7684632740974 103.94071759905134 270.0858891599791 103.48186697823661Q270.33731389491214 103.38758318219865 270.52431044206617 103.57457972935268Q270.7113069892202 103.7615762765067 270.6798784177916 104.2958504813058Q270.4315919362068 106.15009399414062 269.4698928046499 107.56906311035155Q268.50819367309293 108.9880322265625 266.92579464268 109.78944353376116Q265.34339561226705 110.59085484095982 263.21258105451034 110.59085484095982Q259.49464665858403 110.59085484095982 257.5115295059613 108.72716683523996Q255.5284123533385 106.86347882952009 255.5284123533385 102.93811087472098V86.39396815708704Q255.5284123533385 85.79054303850447 255.39169691667553 85.46997314453125Q255.2549814800126 85.14940325055804 254.7301239535059 84.99855032784598ZM260.33680154837197 84.81626116071428 260.4499398017202 82.41832101004464H269.6616053639412Q270.2210258787291 82.41832101004464 270.50387726684295 82.64303030831474Q270.7867286549568 82.86773960658482 270.7867286549568 83.31087210518973Q270.7867286549568 83.9551424734933 270.22102779697684 84.38570181710378Q269.65532693899695 84.81626116071428 268.4265012554032 84.81626116071428Z M283.0061664339746 64.53860020228794V105.970927734375Q283.0061664339746 106.81319963727678 283.20259788277485 107.20762398856027Q283.3990293315751 107.60204833984375 283.89875013933175 107.77804565429688L285.2062105536733 108.07975917271206Q285.84735034161974 108.4066055733817 285.84735034161974 109.02259713309152Q285.84735034161974 110.0 284.8416552383831 110.0H273.44891894513535Q272.9523574914523 110.0 272.6616499196052 109.74072099958147Q272.3709423477581 109.48144199916294 272.3709423477581 109.02259713309152Q272.3709423477581 108.651748046875 272.56422691109515 108.39718122209821Q272.75751147443225 108.14261439732142 273.15350878888535 107.9540487234933L274.4295406317983 107.6837637765067Q274.929261439555 107.52662283761161 275.1351210761342 107.15576895577567Q275.3409807127135 106.78491507393973 275.3409807127135 105.98349993024553V69.25907034737723Q275.3409807127135 68.65250697544643 275.1696955739021 68.38851004464286Q274.9984104350907 68.12451311383928 274.5898390065193 68.0208030482701L272.9492134833608 67.96423392159598Q272.5500759973117 67.81338291713169 272.3819348665918 67.59181570870535Q272.21379373587195 67.37024850027902 272.21379373587195 67.04025617327008Q272.21379373587195 66.65997889927455 272.44950322596685 66.39912789481026Q272.6852127160617 66.13827689034598 273.2477734024456 65.9277108328683L280.03622398140766 63.80946655273437Q280.79363835780276 63.532901262555804 281.1880588725907 63.44018947056361Q281.58247938737867 63.34747767857142 281.9313280899456 63.34747767857142Q282.4593181150572 63.34747767857142 282.7327422745159 63.67747192382812Q283.0061664339746 64.00746616908482 283.0061664339746 64.53860020228794ZM282.2833246370996 89.68452845982142 281.32162838291435 88.5656951032366 282.5190542687961 87.42169817243303Q285.6556022947447 84.41400844029017 288.04729950805387 83.1018790108817Q290.438996721363 81.78974958147322 292.6421311382157 81.78974958147322Q295.75041570155275 81.78974958147322 297.37213305646344 83.70689915248326Q298.9938504113742 85.6240487234933 299.4715708354813 89.39548688616071L301.53644946271345 105.88292236328125Q301.64016336477823 106.73148420061383 301.8318816788128 107.13691162109374Q302.0235999928474 107.54233904157365 302.5484671105929 107.70890816824777L303.73649358241215 107.97919311523438Q304.09791831734515 108.17090087890625 304.2880588725907 108.41132446289063Q304.4781994278362 108.651748046875 304.4781994278362 109.02259713309152Q304.4781994278362 109.48144199916294 304.19220594987866 109.74072099958147Q303.9062124719211 110.0 303.38765063458845 110.0H291.85663169625144Q290.8383643971443 110.0 290.8383643971443 109.02259713309152Q290.8383643971443 108.4003213936942 291.50150456874024 108.07975917271206L292.83410937482284 107.77804565429688Q293.3935471538407 107.60204833984375 293.63712145978377 107.19190682547432Q293.88069576572684 106.7817653111049 293.7769818636621 105.97720424107143L291.9572361186845 91.2591374860491Q291.62094042951037 88.7510879952567 290.7440623777526 87.54420610700335Q289.86718432599474 86.33732421875 288.09772160975587 86.33732421875Q286.9945565009389 86.33732421875 285.8458157434054 86.9014799281529Q284.69707498587195 87.4656356375558 283.3361817799568 88.72281302315848Z M330.9567746929032 93.02856375558036Q330.9567746929032 94.19454572405134 330.3282128555706 94.82781973702566Q329.699651018238 95.46109375 328.508524658026 95.46109375H310.6507850514412V93.65084716796875H322.0595866697447Q323.197297502613 93.65084716796875 323.197297502613 92.47228341238839Q323.197297502613 88.30486328125 321.7955561696052 86.19127650669643Q320.3938148365974 84.07768973214286 318.31004146885186 84.07768973214286Q316.590844517122 84.07768973214286 315.2912364500182 85.16356951032367Q313.99162838291437 86.24944928850447 313.25775282487865 88.40862034388951Q312.52387726684293 90.56779139927455 312.52387726684293 93.7955233328683Q312.52387726684293 99.68210780552455 315.0837472619601 102.66469918387277Q317.6436172570773 105.64729056222099 321.78591601544787 105.64729056222099Q324.63022091221126 105.64729056222099 326.6809428709166 104.19055690220424Q328.73166482962193 102.7338232421875 329.38852082153045 100.395517578125Q329.63994171996796 100.05923531668526 329.85836587942663 99.93037894112723Q330.07679003888535 99.8015225655692 330.2716456471443 99.8015225655692Q330.5419286758831 99.8015225655692 330.7194970352581 100.01523454938616Q330.8970653946331 100.22894653320313 330.8782071008273 100.69408133370536Q330.7210546524456 103.40948765345982 329.1669210028921 105.6660404750279Q327.6127873533385 107.92259329659598 324.9649541885784 109.2755823625837Q322.3171210238184 110.62857142857143 318.8725829727581 110.62857142857143Q314.83717665300367 110.62857142857143 311.8200529783385 108.87800345284599Q308.8029293036733 107.12743547712054 307.13094138863426 103.96101170131138Q305.45895347359516 100.79458792550223 305.45895347359516 96.59573538643973Q305.45895347359516 92.27117431640625 307.119945033305 88.92560538155692Q308.7809365930148 85.5800364467076 311.8923459819657 83.67860691615513Q315.0037553709166 81.77717738560267 319.3062949565751 81.77717738560267Q322.8514048198563 81.77717738560267 325.4646702007157 83.24645542689731Q328.0779355815751 84.71573346819196 329.5173551372392 87.26300920758928Q330.9567746929032 89.8102849469866 330.9567746929032 93.02856375558036Z  M368.5737016599791 66.0Q369.46625467337196 66.0 370.1403854455539 65.74542742047991Q370.81451621773584 65.49085484095983 371.345650250939 65.24413940429687Q371.8767842841421 64.99742396763392 372.3042044152805 64.99742396763392Q372.98304160836085 64.99742396763392 373.3303183068821 65.41069798060826Q373.67759500540325 65.82397199358259 373.9415880997113 66.80766095842634L376.3427221329144 76.38075509207589Q376.5030051616532 76.97788643973215 376.23586997750147 77.35659170968192Q375.96873479334965 77.7352969796317 375.46903316807067 77.84215105329241Q375.0667574286733 77.91129237583705 374.6786239709445 77.72429486955915Q374.29049051321573 77.53729736328125 374.0013549454144 76.89931117466517Q372.3545296454702 73.49876238141741 370.93712486031393 71.66334551130022Q369.5197200751577 69.82792864118304 368.06302573922017 69.1207905796596Q366.6063314032827 68.41365251813616 364.81806602242335 68.41365251813616H357.7966806987626V105.55607788085938Q357.7966806987626 106.25693080357142 358.15968127423696 106.63407078334262Q358.52268184971126 107.01121076311384 359.2801096538407 107.16520769391741L362.3915689172336 107.6334903390067Q362.8975604769434 107.76234287806919 363.13798597917554 108.03576511928013Q363.3784114814077 108.30918736049107 363.3784114814077 108.84345964704241Q363.3784114814077 109.38401611328125 363.03899096661974 109.69200805664062Q362.6995704518318 110.0 362.0364437079702 110.0H345.8980545129367Q345.2506420547894 110.0 344.90650744611196 109.69200805664062Q344.5623728374345 109.38401611328125 344.5623728374345 108.84345964704241Q344.5623728374345 107.94462245396205 345.5429293036733 107.57692121233259L347.5921147459166 107.16520769391741Q348.318110142122 106.94521344866071 348.63710899117336 106.58221575055803Q348.95610784022466 106.21921805245536 348.95610784022466 105.55607788085938V70.44392211914062Q348.95610784022466 69.78078194754464 348.63710899117336 69.41464120047434Q348.318110142122 69.04850045340402 347.5921147459166 68.83479230608259L345.5429293036733 68.42307878766741Q344.5623728374345 68.05537754603795 344.5623728374345 67.15654035295759Q344.5623728374345 66.60341169084822 344.90650744611196 66.30170584542411Q345.2506420547894 66.0 345.8980545129367 66.0ZM354.67275282487867 87.48775687081474H364.22715363403046Q366.2762776923452 87.48775687081474 367.2128372277805 86.58890241350446Q368.14939676321575 85.69004795619419 368.37565792393 83.28577758789062Q368.4919363488742 82.72635899135045 368.75907153302603 82.462361101423Q369.0262067171778 82.19836321149553 369.43162454641885 82.185791015625Q370.30217717616216 82.14178833007813 370.5378876253809 83.23548496791295L372.7724621231488 92.89029070172991Q372.9264590539523 93.53141898018973 372.77403412719457 93.92898158482143Q372.62160920043675 94.32654418945313 372.165906424209 94.47739711216518Q371.7762009624345 94.59367937360491 371.3927825577191 94.43810852050781Q371.0093641530037 94.28253766741071 370.72022858520234 93.83940325055804Q369.75224431483406 92.31826538085937 368.96182552646906 91.45712367466518Q368.1714067381041 90.59598196847098 367.2442725130762 90.24869567871093Q366.31713828804834 89.9014093889509 364.921722377055 89.9014093889509H354.67275282487867Z M396.67725913765776 107.60831909179687V104.68231410435268L396.57354907208855 104.49688284737724V87.84592250279017Q396.57354907208855 87.23935913085937 396.40226393327714 86.9753622000558Q396.2309787944658 86.71136526925223 395.8224073658943 86.60765520368304L394.18178184273586 86.55108607700893Q393.7826443566868 86.40023507254465 393.6145032259669 86.1786678641183Q393.446362095247 85.95710065569196 393.446362095247 85.62710832868304Q393.446362095247 85.2468310546875 393.6820715853419 84.98598005022322Q393.9177810754367 84.72512904575893 394.4803417618207 84.51456298828126L401.26879234078274 82.39631870814732Q402.0167785293988 82.11975341796875 402.41591313807623 82.02704162597657Q402.8150477467537 81.93432983398438 403.16389644932065 81.93432983398438Q403.6918864744323 81.93432983398438 403.965310633891 82.26432407924108Q404.2387347933497 82.59431832449776 404.2387347933497 83.1254523577009V105.970927734375Q404.2387347933497 106.77862897600447 404.45873767072135 107.15576895577567Q404.678740548093 107.53290893554687 405.15017487426485 107.6837637765067L406.43877891304834 107.96662091936383Q406.8222040316309 108.1489004952567 407.00291639909744 108.39718122209821Q407.18362876656397 108.64546194893973 407.18362876656397 109.02259713309152Q407.18362876656397 109.48144199916294 406.89763528860635 109.74072099958147Q406.6116418106488 110.0 406.0930799733162 110.0H399.03121770350594Q397.87152183297025 110.0 397.27439048531403 109.3604408482143Q396.67725913765776 108.72088169642858 396.67725913765776 107.60831909179687ZM379.0144135042872 102.33142857142857V87.84592250279017Q379.0144135042872 87.23935913085937 378.8399853165082 86.9753622000558Q378.6655571287292 86.71136526925223 378.2506996022225 86.60765520368304L376.61007407906396 86.55108607700893Q376.2109365930149 86.40023507254465 376.042795462295 86.1786678641183Q375.87465433157513 85.95710065569196 375.87465433157513 85.62710832868304Q375.87465433157513 85.2468310546875 376.11036382167003 84.98598005022322Q376.3460733117649 84.72512904575893 376.9086339981488 84.51456298828126L383.70965677298136 82.39631870814732Q384.46707114937647 82.11975341796875 384.8614916641644 82.02704162597657Q385.25591217895237 81.93432983398438 385.6047608815193 81.93432983398438Q386.1327509066309 81.93432983398438 386.40617506608965 82.26432407924108Q386.6795992255484 82.59431832449776 386.6795992255484 83.1254523577009V100.94861554827008Q386.6795992255484 103.54151872907366 387.8314839911734 104.81439793178014Q388.98336875679837 106.08727713448661 390.90683415858405 106.08727713448661Q392.2017166223117 106.08727713448661 393.55946198363984 105.48383379255023Q394.917207344968 104.88039045061385 396.31581905674255 103.57606637137276L397.3592480118207 102.61435093470982L398.33037245378495 103.79918160574776L397.1423747556823 104.94317853655134Q393.9335394808497 108.03258370535714 391.28883977381844 109.33371773856027Q388.6441400667872 110.6348517717634 386.258714564555 110.6348517717634Q383.0372840748787 110.6348517717634 381.02584878958294 108.53385253906251Q379.0144135042872 106.43285330636161 379.0144135042872 102.33142857142857Z M410.74155252493455 84.99855032784598 408.7583778248787 84.58369663783482Q408.2869530899457 84.41398733956473 408.14552547764106 84.12956394740513Q408.00409786533635 83.84514055524554 408.00409786533635 83.46486328124999Q408.00409786533635 83.01230451311383 408.3230890413966 82.71531276157924Q408.64208021745685 82.41832101004464 409.1417818427359 82.41832101004464H411.18152758771356Q411.53038779976714 82.41832101004464 411.7959567346164 82.21717930385044Q412.06152566946577 82.01603759765625 412.4072284456935 81.45347115652902L416.2728238000461 76.7486213030134Q416.67509570294794 76.1986328125 417.1072260914803 75.9079252406529Q417.53935648001266 75.61721766880581 417.9919171663966 75.61721766880581Q418.4790465958051 75.61721766880581 418.77603930646353 75.93306675502232Q419.07303201712205 76.24891584123884 419.07303201712205 76.89947038922992V101.91357282366072Q419.07303201712205 104.10099103655133 419.91217717616223 105.1852738734654Q420.7513223352024 106.26955671037946 422.2756080494881 106.26955671037946Q423.01418331455505 106.26955671037946 423.5814696043151 106.01184395926339Q424.1487558940752 105.75413120814733 424.59661207780846 105.33456246512277Q425.0444682615417 104.91499372209822 425.41218005353386 104.42785566057478Q425.77989184552604 103.94071759905134 426.09731773140777 103.48186697823661Q426.3487424663408 103.38758318219865 426.5357390134948 103.57457972935268Q426.7227355606488 103.7615762765067 426.69130698922027 104.2958504813058Q426.4430205076354 106.15009399414062 425.48132137607854 107.56906311035155Q424.5196222445216 108.9880322265625 422.93722321410866 109.78944353376116Q421.3548241836957 110.59085484095982 419.224009625939 110.59085484095982Q415.50607523001264 110.59085484095982 413.5229580773899 108.72716683523996Q411.53984092476713 106.86347882952009 411.53984092476713 102.93811087472098V86.39396815708704Q411.53984092476713 85.79054303850447 411.4031254881042 85.46997314453125Q411.26641005144126 85.14940325055804 410.74155252493455 84.99855032784598ZM416.34823011980063 84.81626116071428 416.46136837314884 82.41832101004464H425.6730339353698Q426.2324544501578 82.41832101004464 426.5153058382716 82.64303030831474Q426.79815722638546 82.86773960658482 426.79815722638546 83.31087210518973Q426.79815722638546 83.9551424734933 426.23245636840556 84.38570181710378Q425.6667555104256 84.81626116071428 424.43792982683186 84.81626116071428Z M448.6286877090863 107.60831909179687V104.68231410435268L448.52497764351716 104.49688284737724V87.84592250279017Q448.52497764351716 87.23935913085937 448.3536925047058 86.9753622000558Q448.1824073658944 86.71136526925223 447.77383593732293 86.60765520368304L446.13321041416447 86.55108607700893Q445.7340729281153 86.40023507254465 445.5659317973955 86.1786678641183Q445.39779066667563 85.95710065569196 445.39779066667563 85.62710832868304Q445.39779066667563 85.2468310546875 445.6335001567705 84.98598005022322Q445.86920964686533 84.72512904575893 446.4317703332493 84.51456298828126L453.22022091221135 82.39631870814732Q453.9682071008274 82.11975341796875 454.36734170950484 82.02704162597657Q454.7664763181823 81.93432983398438 455.1153250207493 81.93432983398438Q455.6433150458609 81.93432983398438 455.9167392053196 82.26432407924108Q456.1901633647783 82.59431832449776 456.1901633647783 83.1254523577009V105.970927734375Q456.1901633647783 106.77862897600447 456.41016624214996 107.15576895577567Q456.6301691195216 107.53290893554687 457.10160344569346 107.6837637765067L458.39020748447695 107.96662091936383Q458.7736326030595 108.1489004952567 458.95434497052605 108.39718122209821Q459.1350573379926 108.64546194893973 459.1350573379926 109.02259713309152Q459.1350573379926 109.48144199916294 458.849063860035 109.74072099958147Q458.5630703820774 110.0 458.0445085447448 110.0H450.98264627493455Q449.82295040439885 110.0 449.2258190567426 109.3604408482143Q448.6286877090863 108.72088169642858 448.6286877090863 107.60831909179687ZM430.9658420757158 102.33142857142857V87.84592250279017Q430.9658420757158 87.23935913085937 430.79141388793676 86.9753622000558Q430.6169857001578 86.71136526925223 430.2021281736511 86.60765520368304L428.56150265049257 86.55108607700893Q428.1623651644435 86.40023507254465 427.99422403372364 86.1786678641183Q427.82608290300374 85.95710065569196 427.82608290300374 85.62710832868304Q427.82608290300374 85.2468310546875 428.0617923930986 84.98598005022322Q428.2975018831935 84.72512904575893 428.8600625695774 84.51456298828126L435.66108534440997 82.39631870814732Q436.4184997208051 82.11975341796875 436.812920235593 82.02704162597657Q437.207340750381 81.93432983398438 437.55618945294793 81.93432983398438Q438.0841794780595 81.93432983398438 438.35760363751825 82.26432407924108Q438.631027796977 82.59431832449776 438.631027796977 83.1254523577009V100.94861554827008Q438.631027796977 103.54151872907366 439.78291256260195 104.81439793178014Q440.934797328227 106.08727713448661 442.85826273001265 106.08727713448661Q444.15314519374033 106.08727713448661 445.5108905550685 105.48383379255023Q446.8686359163966 104.88039045061385 448.26724762817116 103.57606637137276L449.3106765832493 102.61435093470982L450.28180102521355 103.79918160574776L449.0938033271109 104.94317853655134Q445.8849680522783 108.03258370535714 443.24026834524705 109.33371773856027Q440.5955686382158 110.6348517717634 438.2101431359837 110.6348517717634Q434.9887126463073 110.6348517717634 432.97727736101155 108.53385253906251Q430.9658420757158 106.43285330636161 430.9658420757158 102.33142857142857Z M470.94903316807074 94.4931804547991Q470.94903316807074 90.22518275669643 472.0961760252136 87.40761056082589Q473.24331888235645 84.59003836495535 475.10388877632965 83.18989397321428Q476.96445867030286 81.78974958147322 479.1078818706377 81.78974958147322Q481.5498669083051 81.78974958147322 482.8714302802359 83.31244698660714Q484.1929936521667 84.83514439174107 484.1929936521667 87.73281302315849Q484.1929936521667 90.2187451171875 483.1448793769156 91.42085728236607Q482.09676510166446 92.62296944754465 480.47195361310423 92.62296944754465Q478.85342630423145 92.62296944754465 478.04887386631293 91.76970310756138Q477.2443214283944 90.91643676757812 477.2066086772783 89.30732613699777L477.1877523017203 88.2796248953683Q477.17832411394124 87.34618443080358 476.79803053483965 86.87946611676898Q476.4177369557381 86.41274780273437 475.56600617309306 86.41274780273437Q474.5571210238185 86.41274780273437 473.6708071112906 87.30376717703683Q472.7844931987627 88.19478655133929 472.2360450612069 89.97682242257255Q471.6875969236511 91.7588582938058 471.6875969236511 94.43033673967633ZM471.47074860473367 83.31401611328124 471.6875969236511 91.63319963727679V105.87664585658482Q471.6875969236511 106.61520769391741 471.96416796857295 107.04891680036272Q472.2407390134948 107.48262590680804 472.86302626237875 107.58948189871651L475.42446634329394 107.97604910714286Q475.9304579030038 108.05461861746652 476.1535971154759 108.33589800153459Q476.376736327948 108.61717738560267 476.376736327948 109.02259713309152Q476.376736327948 109.46258562360491 476.0907428499904 109.73129281180246Q475.8047493720328 110.0 475.2390465958051 110.0H462.16806410417564Q461.6463601769993 110.0 461.3493665072169 109.73286385672432Q461.0523728374346 109.46572771344866 461.0523728374346 109.01631103515625Q461.0523728374346 108.64546194893973 461.25351358450484 108.3924671282087Q461.45465433157517 108.13947230747767 461.83493736031403 107.95090663364955L463.11097112147473 107.6837637765067Q463.61069192923145 107.51719464983259 463.8165515658107 107.16048304966517Q464.02241120238995 106.80377144949777 464.02241120238995 106.04006905691965V87.751640625Q464.02241120238995 87.13564906529018 463.85584015746804 86.85750985281808Q463.6892691125462 86.57937064034599 463.2806976839747 86.47566057477678L461.59293122192116 86.41909144810268Q461.2220782992091 86.26824044363839 461.04922307459975 86.04667323521204Q460.8763678499904 85.8251060267857 460.8763678499904 85.5045418875558Q460.8763678499904 85.13369280133928 461.11679143397475 84.85869951520647Q461.3572150179591 84.58370622907366 461.9292038921221 84.382568359375L468.8119363488743 82.40574689592634Q469.44678428414215 82.17632254464286 469.8459188928196 82.08361075265067Q470.24505350149707 81.99089896065848 470.5279048896109 81.99089896065848Q470.9521848491533 81.99089896065848 471.1784680697169 82.29260864257813Q471.40475129028056 82.59431832449776 471.47074860473367 83.31401611328124Z M511.1682032643319 93.02856375558036Q511.1682032643319 94.19454572405134 510.5396414269993 94.82781973702566Q509.91107958966677 95.46109375 508.7199532294547 95.46109375H490.8622136228699V93.65084716796875H502.2710152411734Q503.40872607404174 93.65084716796875 503.40872607404174 92.47228341238839Q503.40872607404174 88.30486328125 502.00698474103393 86.19127650669643Q500.6052434080261 84.07768973214286 498.5214700402806 84.07768973214286Q496.8022730885507 84.07768973214286 495.5026650214469 85.16356951032367Q494.2030569543431 86.24944928850447 493.46918139630736 88.40862034388951Q492.73530583827164 90.56779139927455 492.73530583827164 93.7955233328683Q492.73530583827164 99.68210780552455 495.29517583338884 102.66469918387277Q497.85504582850604 105.64729056222099 501.9973445868766 105.64729056222099Q504.84164948363997 105.64729056222099 506.8923714423453 104.19055690220424Q508.94309340105065 102.7338232421875 509.59994939295916 100.395517578125Q509.8513702913967 100.05923531668526 510.0697944508554 99.93037894112723Q510.28821861031406 99.8015225655692 510.483074218573 99.8015225655692Q510.75335724731184 99.8015225655692 510.93092560668686 100.01523454938616Q511.1084939660618 100.22894653320313 511.089635672256 100.69408133370536Q510.9324832238743 103.40948765345982 509.37834957432074 105.6660404750279Q507.8242159247672 107.92259329659598 505.1763827600072 109.2755823625837Q502.5285495952471 110.62857142857143 499.0840115441868 110.62857142857143Q495.0486052244324 110.62857142857143 492.0314815497672 108.87800345284599Q489.014357875102 107.12743547712054 487.3423699600629 103.96101170131138Q485.67038204502387 100.79458792550223 485.67038204502387 96.59573538643973Q485.67038204502387 92.27117431640625 487.3313736047337 88.92560538155692Q488.9923651644435 85.5800364467076 492.10377455339443 83.67860691615513Q495.21518394234533 81.77717738560267 499.5177235280038 81.77717738560267Q503.06283339128504 81.77717738560267 505.6760987721444 83.24645542689731Q508.2893641530038 84.71573346819196 509.72878370866783 87.26300920758928Q511.1682032643319 89.8102849469866 511.1682032643319 93.02856375558036Z" fill="#0B3C5D"/></svg>
